<svg width="46" height="37" viewBox="0 0 46 37" fill="none" xmlns="http://www.w3.org/2000/svg">
<path fill-rule="evenodd" clip-rule="evenodd" d="M31.0039 14.5C31.0039 20.4215 25.2012 26 17.0039 26C8.80664 26 3.00391 20.4215 3.00391 14.5C3.00391 8.57854 8.80664 3 17.0039 3C25.2012 3 31.0039 8.57854 31.0039 14.5ZM28.9195 24.842C25.8518 27.4137 21.645 29 17.0039 29C7.61507 29 0.00390625 22.5081 0.00390625 14.5C0.00390625 6.49187 7.61507 0 17.0039 0C26.3927 0 34.0039 6.49187 34.0039 14.5C34.0039 17.5364 32.9097 20.3548 31.0392 22.684L45.1597 33.3729C45.8202 33.8729 45.9503 34.8137 45.4503 35.4742C44.9503 36.1347 44.0095 36.2648 43.349 35.7648L28.9195 24.842Z" fill="white"/>
</svg>
